<svg width="348" height="123" viewBox="0 0 348 123" fill="none" xmlns="http://www.w3.org/2000/svg">
<path d="M15.6921 87.9563L42.9162 94.1003L42.7504 105.695L6.5891 95.0932L6.69034 87.0239L15.6921 87.9563ZM43.1746 75.5058L16.8331 89.8223L6.59085 93.9806L6.72134 84.9723L43.4062 62.9221L43.1746 75.5058ZM299.269 6.91373L275.762 80.9805L266.256 82.4861L289.764 8.41925L299.269 6.91373ZM332.16 39.5679L304.733 33.5451L304.906 21.994L341.414 32.5406L341.283 40.7036L332.16 39.5679ZM304.459 52.3201L331.054 37.919L341.413 33.6532L341.282 42.6615L304.22 64.8604L304.459 52.3201Z" fill="white"/>
<path d="M83.2652 106.545C77.991 107.381 73.1653 107.021 68.7883 105.467C64.4705 103.903 60.9008 101.309 58.0793 97.6861C55.2577 94.0629 53.4387 89.6734 52.6221 84.5177C51.4676 77.2285 52.0102 70.4907 54.25 64.3041C56.4804 58.0583 60.1275 52.8942 65.1912 48.8118C70.3142 44.72 76.4314 42.111 83.5427 40.9846C88.8762 40.1399 93.7315 40.4947 98.1086 42.0491C102.476 43.5443 106.071 46.1035 108.892 49.7267C111.705 53.2907 113.514 57.6209 114.321 62.7174C115.476 70.0065 114.943 76.8036 112.722 83.1087C110.491 89.3545 106.819 94.5529 101.706 98.704C96.5826 102.796 90.4358 105.409 83.2652 106.545ZM83.3519 92.1342C87.2632 91.5147 90.5408 89.9629 93.1847 87.4787C95.8286 84.9945 97.6831 81.9368 98.7482 78.3055C99.8631 74.6055 100.106 70.7703 99.4773 66.7997C98.8015 62.5329 97.0859 59.3724 94.3306 57.3181C91.5754 55.2639 88.0643 54.5746 83.7975 55.2504C79.8863 55.8699 76.579 57.4264 73.8758 59.92C71.2319 62.4042 69.3478 65.4666 68.2235 69.1073C67.149 72.6794 66.9309 76.4803 67.5692 80.5101C68.245 84.7769 69.9652 87.9671 72.7299 90.0806C75.4852 92.1349 79.0258 92.8194 83.3519 92.1342ZM195.166 24.2165L194.027 88.3645L178.826 90.772L179.566 52.2925L164.87 92.9824L152.603 94.9253L139.181 58.5067L138.558 97.1498L123.358 99.5573L124.497 35.4094L142.453 32.5654L159.251 74.19L177.299 27.0464L195.166 24.2165ZM203.024 54.8645C203.115 48.5324 204.528 42.6893 207.264 37.3354C210.05 31.9128 213.869 27.4505 218.721 23.9483C223.564 20.387 229.066 18.1182 235.23 17.142C242.696 15.9594 248.968 16.8189 254.045 19.7205C259.18 22.6127 262.462 27.2261 263.891 33.5606L247.179 36.2074C246.08 34.2553 244.469 32.9008 242.344 32.1438C240.269 31.3182 237.839 31.126 235.054 31.5671C230.135 32.3461 226.156 34.6469 223.117 38.4695C220.127 42.2234 218.585 46.8718 218.491 52.4147C218.477 54.2395 218.573 55.8038 218.779 57.1075C219.474 61.4929 221.283 64.6689 224.206 66.6358C227.13 68.6027 230.933 69.2153 235.614 68.4738C239.407 67.8731 242.605 66.3946 245.209 64.0383C247.803 61.6228 249.707 58.4964 250.922 54.6591L231.721 57.7002L231.828 46.2931L264.896 41.0556L264.645 55.5837C263.468 59.658 261.478 63.5876 258.676 67.3726C255.933 71.1482 252.469 74.4002 248.284 77.1284C244.099 79.8566 239.4 81.6337 234.185 82.4597C228.792 83.3138 223.887 83.0276 219.469 81.6011C215.101 80.106 211.521 77.6357 208.728 74.1902C205.993 70.7354 204.228 66.4894 203.43 61.4522C203.157 59.7336 203.022 57.5377 203.024 54.8645Z" fill="#0C8CE9"/>
</svg>
